<svg xmlns="http://www.w3.org/2000/svg" width="1200" height="64" viewBox="0 0 1200 64" role="img" aria-label="harvest section title"><defs><linearGradient id="tg" gradientUnits="userSpaceOnUse" x1="0" y1="15" x2="0" y2="43"><stop offset="0" stop-color="#F6E7C8"/><stop offset="0.55" stop-color="#D4A574"/><stop offset="1" stop-color="#A0682D"/></linearGradient><linearGradient id="rl" x1="0" y1="0" x2="1" y2="0"><stop offset="0" stop-color="#D4A574" stop-opacity="0"/><stop offset="1" stop-color="#D4A574" stop-opacity="0.75"/></linearGradient><linearGradient id="rr" x1="0" y1="0" x2="1" y2="0"><stop offset="0" stop-color="#D4A574" stop-opacity="0.75"/><stop offset="1" stop-color="#D4A574" stop-opacity="0"/></linearGradient><filter id="hl" x="-40%" y="-40%" width="180%" height="180%"><feGaussianBlur stdDeviation="5"/></filter></defs><style>.w{animation:w .9s ease-out .1s both}@keyframes w{from{opacity:0;transform:translateY(8px)}to{opacity:1;transform:translateY(0)}}.hb{animation:hb 6s ease-in-out infinite alternate}@keyframes hb{from{opacity:.3}to{opacity:.7}}@media (prefers-reduced-motion:reduce){.w{animation:none}}</style><g class="w"><rect x="120" y="31.4" width="268.9" height="1.2" fill="url(#rl)"/><rect x="811.1" y="31.4" width="268.9" height="1.2" fill="url(#rr)"/><rect x="393.4" y="28.5" width="7" height="7" transform="rotate(45 396.9 32)" fill="#D4A574" opacity="0.9"/><rect x="799.6" y="28.5" width="7" height="7" transform="rotate(45 803.1 32)" fill="#D4A574" opacity="0.9"/><g transform="translate(422.9,41)"><path class="hb" transform="translate(0.0,0)" d="M3.25 -5.278Q3.198 -5.122 3.198 -4.732Q3.198 -4.4719999999999995 3.6790000000000003 -4.146999999999999Q4.16 -3.8219999999999996 4.927 -3.5359999999999996Q5.694 -3.25 6.682 -3.0549999999999997Q7.67 -2.86 8.684 -2.86Q10.634 -2.86 11.544 -3.315Q12.453999999999999 -3.77 12.453999999999999 -4.628Q12.453999999999999 -5.096 11.661 -5.291Q10.868 -5.486 9.672 -5.603Q8.475999999999999 -5.72 7.097999999999999 -5.8629999999999995Q5.72 -6.005999999999999 4.524 -6.382999999999999Q3.328 -6.76 2.535 -7.475Q1.742 -8.19 1.742 -9.437999999999999Q1.742 -10.426 2.197 -11.232Q2.6519999999999997 -12.038 3.471 -12.61Q4.29 -13.181999999999999 5.46 -13.506999999999998Q6.63 -13.831999999999999 8.06 -13.831999999999999Q9.386 -13.831999999999999 10.53 -13.663Q11.674 -13.494 12.558 -13.286Q13.442 -13.078 14.04 -12.908999999999999Q14.638 -12.74 14.898 -12.74Q15.158 -12.74 15.314 -12.857Q15.469999999999999 -12.974 15.6 -13.129999999999999L15.886 -13.026L14.091999999999999 -9.411999999999999L13.78 -9.568V-9.854Q13.78 -10.088 13.273 -10.334999999999999Q12.766 -10.581999999999999 11.986 -10.777Q11.206 -10.972 10.244 -11.102Q9.282 -11.232 8.372 -11.232Q6.6819999999999995 -11.232 6.006 -10.841999999999999Q5.33 -10.452 5.33 -10.01Q5.33 -9.568 5.798 -9.347Q6.266 -9.126 7.02 -9.021999999999998Q7.774 -8.918 8.736 -8.853Q9.698 -8.788 10.712 -8.658000000000001Q11.725999999999999 -8.528 12.687999999999999 -8.294Q13.649999999999999 -8.06 14.404 -7.605Q15.158 -7.1499999999999995 15.625999999999998 -6.409Q16.093999999999998 -5.668 16.093999999999998 -4.55Q16.093999999999998 -3.6919999999999997 15.742999999999999 -2.86Q15.392 -2.028 14.547 -1.365Q13.702 -0.702 12.285 -0.312Q10.868 0.078 8.762 0.078Q7.124 0.078 5.941 -0.07799999999999999Q4.758 -0.23399999999999999 3.926 -0.45499999999999996Q3.094 -0.6759999999999999 2.613 -0.858Q2.132 -1.04 1.898 -1.04Q1.742 -1.04 1.625 -0.9359999999999999Q1.508 -0.832 1.378 -0.702L1.066 -0.7799999999999999L2.9899999999999998 -5.4079999999999995Z" fill="#C2622D" filter="url(#hl)"/><path class="hb" transform="translate(20.8,0)" d="M10.686 -7.774Q11.777999999999999 -7.774 12.285 -8.138Q12.792 -8.501999999999999 12.792 -9.334Q12.792 -10.088 12.285 -10.425999999999998Q11.777999999999999 -10.764 10.686 -10.764H6.734V-7.774ZM6.734 -0.7799999999999999Q6.734 -0.598 6.851 -0.481Q6.968 -0.364 7.462 -0.312V0.0H2.106V-0.312Q2.6 -0.364 2.717 -0.481Q2.834 -0.598 2.834 -0.7799999999999999V-12.895999999999999Q2.834 -13.078 2.717 -13.195Q2.6 -13.312 2.106 -13.363999999999999V-13.676H11.414Q12.636 -13.676 13.572 -13.325Q14.508 -12.974 15.131999999999998 -12.376Q15.755999999999998 -11.777999999999999 16.067999999999998 -10.985Q16.38 -10.192 16.38 -9.334Q16.38 -8.475999999999999 16.067999999999998 -7.683Q15.755999999999998 -6.89 15.131999999999998 -6.305Q14.508 -5.72 13.572 -5.369Q12.636 -5.018 11.414 -5.018H6.734Z" fill="#C2622D" filter="url(#hl)"/><path class="hb" transform="translate(41.7,0)" d="M2.392 -0.312Q2.8859999999999997 -0.364 3.0029999999999997 -0.481Q3.1199999999999997 -0.598 3.1199999999999997 -0.7799999999999999V-12.895999999999999Q3.1199999999999997 -13.078 3.0029999999999997 -13.195Q2.8859999999999997 -13.312 2.392 -13.363999999999999V-13.676H7.747999999999999V-13.363999999999999Q7.254 -13.312 7.137 -13.195Q7.02 -13.078 7.02 -12.895999999999999V-0.7799999999999999Q7.02 -0.598 7.137 -0.481Q7.254 -0.364 7.747999999999999 -0.312V0.0H2.392Z" fill="#C2622D" filter="url(#hl)"/><path class="hb" transform="translate(55.3,0)" d="M14.559999999999999 -8.814Q14.585999999999999 -8.892 14.599 -8.983Q14.612 -9.074 14.612 -9.203999999999999Q14.612 -9.411999999999999 14.261 -9.62Q13.91 -9.828 13.325 -9.997Q12.74 -10.166 11.986 -10.283000000000001Q11.232 -10.4 10.4 -10.4Q9.62 -10.4 8.762 -10.218Q7.904 -10.036 7.189 -9.62Q6.473999999999999 -9.203999999999999 6.019 -8.514999999999999Q5.564 -7.826 5.564 -6.838Q5.564 -5.85 6.019 -5.161Q6.473999999999999 -4.4719999999999995 7.189 -4.055999999999999Q7.904 -3.6399999999999997 8.762 -3.4579999999999997Q9.62 -3.276 10.4 -3.276Q10.738 -3.276 11.466 -3.393Q12.193999999999999 -3.51 12.921999999999999 -3.718Q13.649999999999999 -3.9259999999999997 14.209 -4.186Q14.767999999999999 -4.446 14.767999999999999 -4.732Q14.767999999999999 -4.862 14.716 -4.9399999999999995Q14.664 -5.018 14.612 -5.122L14.898 -5.303999999999999L17.576 -1.222L17.264 -1.04Q17.212 -1.17 17.121 -1.209Q17.029999999999998 -1.248 16.9 -1.248Q16.718 -1.248 16.172 -1.027Q15.626 -0.8059999999999999 14.754999999999999 -0.5589999999999999Q13.883999999999999 -0.312 12.713999999999999 -0.11699999999999999Q11.543999999999999 0.078 10.088 0.078Q8.528 0.078 6.994 -0.325Q5.46 -0.728 4.2379999999999995 -1.5989999999999998Q3.016 -2.4699999999999998 2.262 -3.783Q1.508 -5.096 1.508 -6.838Q1.508 -8.58 2.262 -9.893Q3.016 -11.206 4.2379999999999995 -12.076999999999998Q5.46 -12.947999999999999 6.994 -13.389999999999999Q8.528 -13.831999999999999 10.088 -13.831999999999999Q11.648 -13.831999999999999 12.779 -13.663Q13.91 -13.494 14.69 -13.286Q15.443999999999999 -13.078 15.86 -12.934999999999999Q16.276 -12.792 16.483999999999998 -12.792Q16.718 -12.792 16.874 -13.0L17.16 -12.921999999999999L14.819999999999999 -8.632Z" fill="#C2622D" filter="url(#hl)"/><path class="hb" transform="translate(77.6,0)" d="M12.35 -4.992Q12.298 -5.252 12.129 -5.420999999999999Q11.959999999999999 -5.59 11.57 -5.59H6.734V-3.1719999999999997H15.08Q15.287999999999998 -3.1719999999999997 15.392 -3.3149999999999995Q15.495999999999999 -3.4579999999999997 15.548 -3.952H15.86V0.494H15.548Q15.495999999999999 0.156 15.392 0.078Q15.287999999999998 0.0 15.08 0.0H2.106V-0.312Q2.6 -0.364 2.717 -0.481Q2.834 -0.598 2.834 -0.7799999999999999V-12.895999999999999Q2.834 -13.078 2.717 -13.195Q2.6 -13.312 2.106 -13.363999999999999V-13.676H15.08Q15.287999999999998 -13.676 15.392 -13.818999999999999Q15.495999999999999 -13.962 15.548 -14.404H15.86V-9.879999999999999H15.548Q15.495999999999999 -10.322 15.392 -10.465Q15.287999999999998 -10.607999999999999 15.08 -10.607999999999999H6.734V-8.45H11.57Q11.959999999999999 -8.45 12.129 -8.619Q12.298 -8.788 12.35 -9.048H12.661999999999999V-4.992Z" fill="#C2622D" filter="url(#hl)"/><path class="hb" transform="translate(109.8,0)" d="M17.394 -0.7799999999999999Q17.394 -0.598 17.511 -0.481Q17.628 -0.364 18.122 -0.312V0.0H12.766V-0.312Q13.26 -0.364 13.376999999999999 -0.481Q13.494 -0.598 13.494 -0.7799999999999999V-5.59H6.734V-0.7799999999999999Q6.734 -0.598 6.851 -0.481Q6.968 -0.364 7.462 -0.312V0.0H2.106V-0.312Q2.6 -0.364 2.717 -0.481Q2.834 -0.598 2.834 -0.7799999999999999V-12.895999999999999Q2.834 -13.078 2.717 -13.195Q2.6 -13.312 2.106 -13.363999999999999V-13.676H7.462V-13.363999999999999Q6.968 -13.312 6.851 -13.195Q6.734 -13.078 6.734 -12.895999999999999V-8.762H13.494V-12.895999999999999Q13.494 -13.078 13.376999999999999 -13.195Q13.26 -13.312 12.766 -13.363999999999999V-13.676H18.122V-13.363999999999999Q17.628 -13.312 17.511 -13.195Q17.394 -13.078 17.394 -12.895999999999999Z" fill="#C2622D" filter="url(#hl)"/><path class="hb" transform="translate(133.6,0)" d="M5.2 -0.572Q5.2 -0.442 5.291 -0.377Q5.382 -0.312 5.668 -0.312V0.0H1.066V-0.312Q1.3519999999999999 -0.364 1.4819999999999998 -0.481Q1.6119999999999999 -0.598 1.742 -0.9099999999999999Q1.7939999999999998 -1.04 2.002 -1.6119999999999999Q2.21 -2.1839999999999997 2.548 -3.0549999999999997Q2.8859999999999997 -3.9259999999999997 3.3019999999999996 -4.992Q3.718 -6.058 4.134 -7.162999999999999Q4.55 -8.267999999999999 4.952999999999999 -9.320999999999998Q5.356 -10.373999999999999 5.667999999999999 -11.206Q5.9799999999999995 -12.038 6.175 -12.558Q6.37 -13.078 6.37 -13.104Q6.37 -13.234 6.2010000000000005 -13.286Q6.032 -13.338 5.85 -13.363999999999999V-13.676H12.636V-13.363999999999999Q12.427999999999999 -13.338 12.297999999999998 -13.286Q12.168 -13.234 12.168 -13.026Q12.168 -12.974 12.415 -12.35Q12.661999999999999 -11.725999999999999 13.052 -10.725Q13.442 -9.724 13.949 -8.463000000000001Q14.456 -7.202 15.001999999999999 -5.888999999999999Q15.548 -4.576 16.055 -3.328Q16.561999999999998 -2.08 16.977999999999998 -1.0919999999999999Q17.186 -0.624 17.329 -0.46799999999999997Q17.471999999999998 -0.312 17.706 -0.312V0.0H12.584V-0.312Q13.078 -0.33799999999999997 13.078 -0.624Q13.078 -0.65 12.948 -0.9750000000000001Q12.818 -1.3 12.661999999999999 -1.7029999999999998Q12.506 -2.106 12.363 -2.4699999999999998Q12.219999999999999 -2.834 12.193999999999999 -2.964H6.032Q5.771999999999999 -2.262 5.616 -1.8199999999999998Q5.46 -1.378 5.369 -1.1179999999999999Q5.278 -0.858 5.239 -0.741Q5.2 -0.624 5.2 -0.572ZM11.517999999999999 -5.044 8.996 -11.232 6.6819999999999995 -5.044Z" fill="#C2622D" filter="url(#hl)"/><path class="hb" transform="translate(155.8,0)" d="M11.102 -7.904Q12.245999999999999 -7.904 12.674999999999999 -8.333Q13.104 -8.762 13.104 -9.334Q13.104 -9.905999999999999 12.674999999999999 -10.334999999999999Q12.245999999999999 -10.764 11.102 -10.764H6.734V-7.904ZM6.734 -0.7799999999999999Q6.734 -0.598 6.851 -0.481Q6.968 -0.364 7.462 -0.312V0.0H2.106V-0.312Q2.6 -0.364 2.717 -0.481Q2.834 -0.598 2.834 -0.7799999999999999V-12.895999999999999Q2.834 -13.078 2.717 -13.195Q2.6 -13.312 2.106 -13.363999999999999V-13.676H11.622Q14.508 -13.676 15.808 -12.623000000000001Q17.108 -11.57 17.108 -9.36Q17.108 -7.566 16.055 -6.552Q15.001999999999999 -5.537999999999999 13.389999999999999 -5.096L16.458 -0.7799999999999999Q16.77 -0.312 17.212 -0.312V0.0H11.804V-0.312Q12.376 -0.33799999999999997 12.376 -0.7799999999999999Q12.376 -0.832 12.168 -1.144Q11.959999999999999 -1.456 11.648 -1.898Q11.336 -2.34 10.959 -2.8469999999999995Q10.581999999999999 -3.3539999999999996 10.230999999999998 -3.822Q9.879999999999999 -4.29 9.62 -4.654Q9.36 -5.018 9.282 -5.148H6.734Z" fill="#C2622D" filter="url(#hl)"/><path class="hb" transform="translate(178.1,0)" d="M6.084 -0.312Q6.318 -0.364 6.395999999999999 -0.416Q6.473999999999999 -0.46799999999999997 6.473999999999999 -0.5459999999999999Q6.473999999999999 -0.598 6.266 -1.079Q6.058 -1.5599999999999998 5.733 -2.34Q5.4079999999999995 -3.1199999999999997 4.965999999999999 -4.108Q4.524 -5.096 4.069 -6.162Q3.614 -7.228 3.146 -8.268Q2.678 -9.308 2.288 -10.192Q1.898 -11.075999999999999 1.625 -11.725999999999999Q1.3519999999999999 -12.376 1.248 -12.636Q1.066 -13.078 0.962 -13.207999999999998Q0.858 -13.338 0.65 -13.363999999999999V-13.676H5.9799999999999995V-13.363999999999999Q5.668 -13.338 5.564 -13.259999999999998Q5.46 -13.181999999999999 5.46 -13.052Q5.46 -12.974 5.577 -12.727Q5.694 -12.479999999999999 6.071 -11.674Q6.4479999999999995 -10.868 7.162999999999999 -9.334Q7.877999999999999 -7.8 9.1 -5.148Q10.27 -7.7219999999999995 10.959 -9.242999999999999Q11.648 -10.764 12.024999999999999 -11.57Q12.402 -12.376 12.506 -12.675Q12.61 -12.974 12.61 -13.078Q12.61 -13.208 12.532 -13.273Q12.453999999999999 -13.338 12.219999999999999 -13.363999999999999V-13.676H16.692V-13.363999999999999Q16.535999999999998 -13.312 16.445 -13.26Q16.354 -13.208 16.302 -13.026Q16.25 -12.87 15.989999999999998 -12.271999999999998Q15.729999999999999 -11.674 15.352999999999998 -10.79Q14.975999999999999 -9.905999999999999 14.520999999999999 -8.826999999999998Q14.065999999999999 -7.747999999999999 13.584999999999999 -6.629999999999999Q13.104 -5.512 12.649 -4.446Q12.193999999999999 -3.38 11.843 -2.548Q11.491999999999999 -1.716 11.283999999999999 -1.17Q11.075999999999999 -0.624 11.075999999999999 -0.572Q11.075999999999999 -0.33799999999999997 11.44 -0.33799999999999997V0.0H6.084Z" fill="#C2622D" filter="url(#hl)"/><path class="hb" transform="translate(199.0,0)" d="M12.35 -4.992Q12.298 -5.252 12.129 -5.420999999999999Q11.959999999999999 -5.59 11.57 -5.59H6.734V-3.1719999999999997H15.08Q15.287999999999998 -3.1719999999999997 15.392 -3.3149999999999995Q15.495999999999999 -3.4579999999999997 15.548 -3.952H15.86V0.494H15.548Q15.495999999999999 0.156 15.392 0.078Q15.287999999999998 0.0 15.08 0.0H2.106V-0.312Q2.6 -0.364 2.717 -0.481Q2.834 -0.598 2.834 -0.7799999999999999V-12.895999999999999Q2.834 -13.078 2.717 -13.195Q2.6 -13.312 2.106 -13.363999999999999V-13.676H15.08Q15.287999999999998 -13.676 15.392 -13.818999999999999Q15.495999999999999 -13.962 15.548 -14.404H15.86V-9.879999999999999H15.548Q15.495999999999999 -10.322 15.392 -10.465Q15.287999999999998 -10.607999999999999 15.08 -10.607999999999999H6.734V-8.45H11.57Q11.959999999999999 -8.45 12.129 -8.619Q12.298 -8.788 12.35 -9.048H12.661999999999999V-4.992Z" fill="#C2622D" filter="url(#hl)"/><path class="hb" transform="translate(219.8,0)" d="M3.25 -5.278Q3.198 -5.122 3.198 -4.732Q3.198 -4.4719999999999995 3.6790000000000003 -4.146999999999999Q4.16 -3.8219999999999996 4.927 -3.5359999999999996Q5.694 -3.25 6.682 -3.0549999999999997Q7.67 -2.86 8.684 -2.86Q10.634 -2.86 11.544 -3.315Q12.453999999999999 -3.77 12.453999999999999 -4.628Q12.453999999999999 -5.096 11.661 -5.291Q10.868 -5.486 9.672 -5.603Q8.475999999999999 -5.72 7.097999999999999 -5.8629999999999995Q5.72 -6.005999999999999 4.524 -6.382999999999999Q3.328 -6.76 2.535 -7.475Q1.742 -8.19 1.742 -9.437999999999999Q1.742 -10.426 2.197 -11.232Q2.6519999999999997 -12.038 3.471 -12.61Q4.29 -13.181999999999999 5.46 -13.506999999999998Q6.63 -13.831999999999999 8.06 -13.831999999999999Q9.386 -13.831999999999999 10.53 -13.663Q11.674 -13.494 12.558 -13.286Q13.442 -13.078 14.04 -12.908999999999999Q14.638 -12.74 14.898 -12.74Q15.158 -12.74 15.314 -12.857Q15.469999999999999 -12.974 15.6 -13.129999999999999L15.886 -13.026L14.091999999999999 -9.411999999999999L13.78 -9.568V-9.854Q13.78 -10.088 13.273 -10.334999999999999Q12.766 -10.581999999999999 11.986 -10.777Q11.206 -10.972 10.244 -11.102Q9.282 -11.232 8.372 -11.232Q6.6819999999999995 -11.232 6.006 -10.841999999999999Q5.33 -10.452 5.33 -10.01Q5.33 -9.568 5.798 -9.347Q6.266 -9.126 7.02 -9.021999999999998Q7.774 -8.918 8.736 -8.853Q9.698 -8.788 10.712 -8.658000000000001Q11.725999999999999 -8.528 12.687999999999999 -8.294Q13.649999999999999 -8.06 14.404 -7.605Q15.158 -7.1499999999999995 15.625999999999998 -6.409Q16.093999999999998 -5.668 16.093999999999998 -4.55Q16.093999999999998 -3.6919999999999997 15.742999999999999 -2.86Q15.392 -2.028 14.547 -1.365Q13.702 -0.702 12.285 -0.312Q10.868 0.078 8.762 0.078Q7.124 0.078 5.941 -0.07799999999999999Q4.758 -0.23399999999999999 3.926 -0.45499999999999996Q3.094 -0.6759999999999999 2.613 -0.858Q2.132 -1.04 1.898 -1.04Q1.742 -1.04 1.625 -0.9359999999999999Q1.508 -0.832 1.378 -0.702L1.066 -0.7799999999999999L2.9899999999999998 -5.4079999999999995Z" fill="#C2622D" filter="url(#hl)"/><path class="hb" transform="translate(240.6,0)" d="M5.252 -0.312Q5.7459999999999996 -0.364 5.8629999999999995 -0.481Q5.9799999999999995 -0.598 5.9799999999999995 -0.7799999999999999V-10.504H1.508Q1.3 -10.504 1.196 -10.361Q1.0919999999999999 -10.218 1.04 -9.776H0.728V-14.404H1.04Q1.0919999999999999 -13.962 1.196 -13.818999999999999Q1.3 -13.676 1.508 -13.676H14.351999999999999Q14.559999999999999 -13.676 14.663999999999998 -13.818999999999999Q14.767999999999999 -13.962 14.819999999999999 -14.404H15.132V-9.776H14.819999999999999Q14.767999999999999 -10.218 14.663999999999998 -10.361Q14.559999999999999 -10.504 14.351999999999999 -10.504H9.879999999999999V-0.7799999999999999Q9.879999999999999 -0.598 9.997 -0.481Q10.113999999999999 -0.364 10.607999999999999 -0.312V0.0H5.252Z" fill="#C2622D" filter="url(#hl)"/><path class="hb" transform="translate(271.5,0)" d="M10.036 -3.068Q12.09 -3.068 13.0 -4.1209999999999996Q13.91 -5.1739999999999995 13.91 -6.838Q13.91 -8.501999999999999 13.0 -9.555Q12.09 -10.607999999999999 10.036 -10.607999999999999H6.734V-3.068ZM2.834 -12.895999999999999Q2.834 -13.078 2.717 -13.195Q2.6 -13.312 2.106 -13.363999999999999V-13.676H10.738Q12.532 -13.676 13.858 -13.155999999999999Q15.184 -12.636 16.041999999999998 -11.713Q16.9 -10.79 17.329 -9.542Q17.758 -8.294 17.758 -6.838Q17.758 -5.512 17.302999999999997 -4.276999999999999Q16.848 -3.042 15.924999999999999 -2.093Q15.001999999999999 -1.144 13.637 -0.572Q12.272 0.0 10.452 0.0H2.106V-0.312Q2.6 -0.364 2.717 -0.481Q2.834 -0.598 2.834 -0.7799999999999999Z" fill="#C2622D" filter="url(#hl)"/><path class="hb" transform="translate(293.7,0)" d="M5.2 -0.572Q5.2 -0.442 5.291 -0.377Q5.382 -0.312 5.668 -0.312V0.0H1.066V-0.312Q1.3519999999999999 -0.364 1.4819999999999998 -0.481Q1.6119999999999999 -0.598 1.742 -0.9099999999999999Q1.7939999999999998 -1.04 2.002 -1.6119999999999999Q2.21 -2.1839999999999997 2.548 -3.0549999999999997Q2.8859999999999997 -3.9259999999999997 3.3019999999999996 -4.992Q3.718 -6.058 4.134 -7.162999999999999Q4.55 -8.267999999999999 4.952999999999999 -9.320999999999998Q5.356 -10.373999999999999 5.667999999999999 -11.206Q5.9799999999999995 -12.038 6.175 -12.558Q6.37 -13.078 6.37 -13.104Q6.37 -13.234 6.2010000000000005 -13.286Q6.032 -13.338 5.85 -13.363999999999999V-13.676H12.636V-13.363999999999999Q12.427999999999999 -13.338 12.297999999999998 -13.286Q12.168 -13.234 12.168 -13.026Q12.168 -12.974 12.415 -12.35Q12.661999999999999 -11.725999999999999 13.052 -10.725Q13.442 -9.724 13.949 -8.463000000000001Q14.456 -7.202 15.001999999999999 -5.888999999999999Q15.548 -4.576 16.055 -3.328Q16.561999999999998 -2.08 16.977999999999998 -1.0919999999999999Q17.186 -0.624 17.329 -0.46799999999999997Q17.471999999999998 -0.312 17.706 -0.312V0.0H12.584V-0.312Q13.078 -0.33799999999999997 13.078 -0.624Q13.078 -0.65 12.948 -0.9750000000000001Q12.818 -1.3 12.661999999999999 -1.7029999999999998Q12.506 -2.106 12.363 -2.4699999999999998Q12.219999999999999 -2.834 12.193999999999999 -2.964H6.032Q5.771999999999999 -2.262 5.616 -1.8199999999999998Q5.46 -1.378 5.369 -1.1179999999999999Q5.278 -0.858 5.239 -0.741Q5.2 -0.624 5.2 -0.572ZM11.517999999999999 -5.044 8.996 -11.232 6.6819999999999995 -5.044Z" fill="#C2622D" filter="url(#hl)"/><path class="hb" transform="translate(316.0,0)" d="M5.252 -0.312Q5.7459999999999996 -0.364 5.8629999999999995 -0.481Q5.9799999999999995 -0.598 5.9799999999999995 -0.7799999999999999V-10.504H1.508Q1.3 -10.504 1.196 -10.361Q1.0919999999999999 -10.218 1.04 -9.776H0.728V-14.404H1.04Q1.0919999999999999 -13.962 1.196 -13.818999999999999Q1.3 -13.676 1.508 -13.676H14.351999999999999Q14.559999999999999 -13.676 14.663999999999998 -13.818999999999999Q14.767999999999999 -13.962 14.819999999999999 -14.404H15.132V-9.776H14.819999999999999Q14.767999999999999 -10.218 14.663999999999998 -10.361Q14.559999999999999 -10.504 14.351999999999999 -10.504H9.879999999999999V-0.7799999999999999Q9.879999999999999 -0.598 9.997 -0.481Q10.113999999999999 -0.364 10.607999999999999 -0.312V0.0H5.252Z" fill="#C2622D" filter="url(#hl)"/><path class="hb" transform="translate(335.4,0)" d="M5.2 -0.572Q5.2 -0.442 5.291 -0.377Q5.382 -0.312 5.668 -0.312V0.0H1.066V-0.312Q1.3519999999999999 -0.364 1.4819999999999998 -0.481Q1.6119999999999999 -0.598 1.742 -0.9099999999999999Q1.7939999999999998 -1.04 2.002 -1.6119999999999999Q2.21 -2.1839999999999997 2.548 -3.0549999999999997Q2.8859999999999997 -3.9259999999999997 3.3019999999999996 -4.992Q3.718 -6.058 4.134 -7.162999999999999Q4.55 -8.267999999999999 4.952999999999999 -9.320999999999998Q5.356 -10.373999999999999 5.667999999999999 -11.206Q5.9799999999999995 -12.038 6.175 -12.558Q6.37 -13.078 6.37 -13.104Q6.37 -13.234 6.2010000000000005 -13.286Q6.032 -13.338 5.85 -13.363999999999999V-13.676H12.636V-13.363999999999999Q12.427999999999999 -13.338 12.297999999999998 -13.286Q12.168 -13.234 12.168 -13.026Q12.168 -12.974 12.415 -12.35Q12.661999999999999 -11.725999999999999 13.052 -10.725Q13.442 -9.724 13.949 -8.463000000000001Q14.456 -7.202 15.001999999999999 -5.888999999999999Q15.548 -4.576 16.055 -3.328Q16.561999999999998 -2.08 16.977999999999998 -1.0919999999999999Q17.186 -0.624 17.329 -0.46799999999999997Q17.471999999999998 -0.312 17.706 -0.312V0.0H12.584V-0.312Q13.078 -0.33799999999999997 13.078 -0.624Q13.078 -0.65 12.948 -0.9750000000000001Q12.818 -1.3 12.661999999999999 -1.7029999999999998Q12.506 -2.106 12.363 -2.4699999999999998Q12.219999999999999 -2.834 12.193999999999999 -2.964H6.032Q5.771999999999999 -2.262 5.616 -1.8199999999999998Q5.46 -1.378 5.369 -1.1179999999999999Q5.278 -0.858 5.239 -0.741Q5.2 -0.624 5.2 -0.572ZM11.517999999999999 -5.044 8.996 -11.232 6.6819999999999995 -5.044Z" fill="#C2622D" filter="url(#hl)"/></g><g transform="translate(422.9,41)"><path transform="translate(0.0,0)" d="M3.25 -5.278Q3.198 -5.122 3.198 -4.732Q3.198 -4.4719999999999995 3.6790000000000003 -4.146999999999999Q4.16 -3.8219999999999996 4.927 -3.5359999999999996Q5.694 -3.25 6.682 -3.0549999999999997Q7.67 -2.86 8.684 -2.86Q10.634 -2.86 11.544 -3.315Q12.453999999999999 -3.77 12.453999999999999 -4.628Q12.453999999999999 -5.096 11.661 -5.291Q10.868 -5.486 9.672 -5.603Q8.475999999999999 -5.72 7.097999999999999 -5.8629999999999995Q5.72 -6.005999999999999 4.524 -6.382999999999999Q3.328 -6.76 2.535 -7.475Q1.742 -8.19 1.742 -9.437999999999999Q1.742 -10.426 2.197 -11.232Q2.6519999999999997 -12.038 3.471 -12.61Q4.29 -13.181999999999999 5.46 -13.506999999999998Q6.63 -13.831999999999999 8.06 -13.831999999999999Q9.386 -13.831999999999999 10.53 -13.663Q11.674 -13.494 12.558 -13.286Q13.442 -13.078 14.04 -12.908999999999999Q14.638 -12.74 14.898 -12.74Q15.158 -12.74 15.314 -12.857Q15.469999999999999 -12.974 15.6 -13.129999999999999L15.886 -13.026L14.091999999999999 -9.411999999999999L13.78 -9.568V-9.854Q13.78 -10.088 13.273 -10.334999999999999Q12.766 -10.581999999999999 11.986 -10.777Q11.206 -10.972 10.244 -11.102Q9.282 -11.232 8.372 -11.232Q6.6819999999999995 -11.232 6.006 -10.841999999999999Q5.33 -10.452 5.33 -10.01Q5.33 -9.568 5.798 -9.347Q6.266 -9.126 7.02 -9.021999999999998Q7.774 -8.918 8.736 -8.853Q9.698 -8.788 10.712 -8.658000000000001Q11.725999999999999 -8.528 12.687999999999999 -8.294Q13.649999999999999 -8.06 14.404 -7.605Q15.158 -7.1499999999999995 15.625999999999998 -6.409Q16.093999999999998 -5.668 16.093999999999998 -4.55Q16.093999999999998 -3.6919999999999997 15.742999999999999 -2.86Q15.392 -2.028 14.547 -1.365Q13.702 -0.702 12.285 -0.312Q10.868 0.078 8.762 0.078Q7.124 0.078 5.941 -0.07799999999999999Q4.758 -0.23399999999999999 3.926 -0.45499999999999996Q3.094 -0.6759999999999999 2.613 -0.858Q2.132 -1.04 1.898 -1.04Q1.742 -1.04 1.625 -0.9359999999999999Q1.508 -0.832 1.378 -0.702L1.066 -0.7799999999999999L2.9899999999999998 -5.4079999999999995Z" fill="url(#tg)"/><path transform="translate(20.8,0)" d="M10.686 -7.774Q11.777999999999999 -7.774 12.285 -8.138Q12.792 -8.501999999999999 12.792 -9.334Q12.792 -10.088 12.285 -10.425999999999998Q11.777999999999999 -10.764 10.686 -10.764H6.734V-7.774ZM6.734 -0.7799999999999999Q6.734 -0.598 6.851 -0.481Q6.968 -0.364 7.462 -0.312V0.0H2.106V-0.312Q2.6 -0.364 2.717 -0.481Q2.834 -0.598 2.834 -0.7799999999999999V-12.895999999999999Q2.834 -13.078 2.717 -13.195Q2.6 -13.312 2.106 -13.363999999999999V-13.676H11.414Q12.636 -13.676 13.572 -13.325Q14.508 -12.974 15.131999999999998 -12.376Q15.755999999999998 -11.777999999999999 16.067999999999998 -10.985Q16.38 -10.192 16.38 -9.334Q16.38 -8.475999999999999 16.067999999999998 -7.683Q15.755999999999998 -6.89 15.131999999999998 -6.305Q14.508 -5.72 13.572 -5.369Q12.636 -5.018 11.414 -5.018H6.734Z" fill="url(#tg)"/><path transform="translate(41.7,0)" d="M2.392 -0.312Q2.8859999999999997 -0.364 3.0029999999999997 -0.481Q3.1199999999999997 -0.598 3.1199999999999997 -0.7799999999999999V-12.895999999999999Q3.1199999999999997 -13.078 3.0029999999999997 -13.195Q2.8859999999999997 -13.312 2.392 -13.363999999999999V-13.676H7.747999999999999V-13.363999999999999Q7.254 -13.312 7.137 -13.195Q7.02 -13.078 7.02 -12.895999999999999V-0.7799999999999999Q7.02 -0.598 7.137 -0.481Q7.254 -0.364 7.747999999999999 -0.312V0.0H2.392Z" fill="url(#tg)"/><path transform="translate(55.3,0)" d="M14.559999999999999 -8.814Q14.585999999999999 -8.892 14.599 -8.983Q14.612 -9.074 14.612 -9.203999999999999Q14.612 -9.411999999999999 14.261 -9.62Q13.91 -9.828 13.325 -9.997Q12.74 -10.166 11.986 -10.283000000000001Q11.232 -10.4 10.4 -10.4Q9.62 -10.4 8.762 -10.218Q7.904 -10.036 7.189 -9.62Q6.473999999999999 -9.203999999999999 6.019 -8.514999999999999Q5.564 -7.826 5.564 -6.838Q5.564 -5.85 6.019 -5.161Q6.473999999999999 -4.4719999999999995 7.189 -4.055999999999999Q7.904 -3.6399999999999997 8.762 -3.4579999999999997Q9.62 -3.276 10.4 -3.276Q10.738 -3.276 11.466 -3.393Q12.193999999999999 -3.51 12.921999999999999 -3.718Q13.649999999999999 -3.9259999999999997 14.209 -4.186Q14.767999999999999 -4.446 14.767999999999999 -4.732Q14.767999999999999 -4.862 14.716 -4.9399999999999995Q14.664 -5.018 14.612 -5.122L14.898 -5.303999999999999L17.576 -1.222L17.264 -1.04Q17.212 -1.17 17.121 -1.209Q17.029999999999998 -1.248 16.9 -1.248Q16.718 -1.248 16.172 -1.027Q15.626 -0.8059999999999999 14.754999999999999 -0.5589999999999999Q13.883999999999999 -0.312 12.713999999999999 -0.11699999999999999Q11.543999999999999 0.078 10.088 0.078Q8.528 0.078 6.994 -0.325Q5.46 -0.728 4.2379999999999995 -1.5989999999999998Q3.016 -2.4699999999999998 2.262 -3.783Q1.508 -5.096 1.508 -6.838Q1.508 -8.58 2.262 -9.893Q3.016 -11.206 4.2379999999999995 -12.076999999999998Q5.46 -12.947999999999999 6.994 -13.389999999999999Q8.528 -13.831999999999999 10.088 -13.831999999999999Q11.648 -13.831999999999999 12.779 -13.663Q13.91 -13.494 14.69 -13.286Q15.443999999999999 -13.078 15.86 -12.934999999999999Q16.276 -12.792 16.483999999999998 -12.792Q16.718 -12.792 16.874 -13.0L17.16 -12.921999999999999L14.819999999999999 -8.632Z" fill="url(#tg)"/><path transform="translate(77.6,0)" d="M12.35 -4.992Q12.298 -5.252 12.129 -5.420999999999999Q11.959999999999999 -5.59 11.57 -5.59H6.734V-3.1719999999999997H15.08Q15.287999999999998 -3.1719999999999997 15.392 -3.3149999999999995Q15.495999999999999 -3.4579999999999997 15.548 -3.952H15.86V0.494H15.548Q15.495999999999999 0.156 15.392 0.078Q15.287999999999998 0.0 15.08 0.0H2.106V-0.312Q2.6 -0.364 2.717 -0.481Q2.834 -0.598 2.834 -0.7799999999999999V-12.895999999999999Q2.834 -13.078 2.717 -13.195Q2.6 -13.312 2.106 -13.363999999999999V-13.676H15.08Q15.287999999999998 -13.676 15.392 -13.818999999999999Q15.495999999999999 -13.962 15.548 -14.404H15.86V-9.879999999999999H15.548Q15.495999999999999 -10.322 15.392 -10.465Q15.287999999999998 -10.607999999999999 15.08 -10.607999999999999H6.734V-8.45H11.57Q11.959999999999999 -8.45 12.129 -8.619Q12.298 -8.788 12.35 -9.048H12.661999999999999V-4.992Z" fill="url(#tg)"/><path transform="translate(109.8,0)" d="M17.394 -0.7799999999999999Q17.394 -0.598 17.511 -0.481Q17.628 -0.364 18.122 -0.312V0.0H12.766V-0.312Q13.26 -0.364 13.376999999999999 -0.481Q13.494 -0.598 13.494 -0.7799999999999999V-5.59H6.734V-0.7799999999999999Q6.734 -0.598 6.851 -0.481Q6.968 -0.364 7.462 -0.312V0.0H2.106V-0.312Q2.6 -0.364 2.717 -0.481Q2.834 -0.598 2.834 -0.7799999999999999V-12.895999999999999Q2.834 -13.078 2.717 -13.195Q2.6 -13.312 2.106 -13.363999999999999V-13.676H7.462V-13.363999999999999Q6.968 -13.312 6.851 -13.195Q6.734 -13.078 6.734 -12.895999999999999V-8.762H13.494V-12.895999999999999Q13.494 -13.078 13.376999999999999 -13.195Q13.26 -13.312 12.766 -13.363999999999999V-13.676H18.122V-13.363999999999999Q17.628 -13.312 17.511 -13.195Q17.394 -13.078 17.394 -12.895999999999999Z" fill="url(#tg)"/><path transform="translate(133.6,0)" d="M5.2 -0.572Q5.2 -0.442 5.291 -0.377Q5.382 -0.312 5.668 -0.312V0.0H1.066V-0.312Q1.3519999999999999 -0.364 1.4819999999999998 -0.481Q1.6119999999999999 -0.598 1.742 -0.9099999999999999Q1.7939999999999998 -1.04 2.002 -1.6119999999999999Q2.21 -2.1839999999999997 2.548 -3.0549999999999997Q2.8859999999999997 -3.9259999999999997 3.3019999999999996 -4.992Q3.718 -6.058 4.134 -7.162999999999999Q4.55 -8.267999999999999 4.952999999999999 -9.320999999999998Q5.356 -10.373999999999999 5.667999999999999 -11.206Q5.9799999999999995 -12.038 6.175 -12.558Q6.37 -13.078 6.37 -13.104Q6.37 -13.234 6.2010000000000005 -13.286Q6.032 -13.338 5.85 -13.363999999999999V-13.676H12.636V-13.363999999999999Q12.427999999999999 -13.338 12.297999999999998 -13.286Q12.168 -13.234 12.168 -13.026Q12.168 -12.974 12.415 -12.35Q12.661999999999999 -11.725999999999999 13.052 -10.725Q13.442 -9.724 13.949 -8.463000000000001Q14.456 -7.202 15.001999999999999 -5.888999999999999Q15.548 -4.576 16.055 -3.328Q16.561999999999998 -2.08 16.977999999999998 -1.0919999999999999Q17.186 -0.624 17.329 -0.46799999999999997Q17.471999999999998 -0.312 17.706 -0.312V0.0H12.584V-0.312Q13.078 -0.33799999999999997 13.078 -0.624Q13.078 -0.65 12.948 -0.9750000000000001Q12.818 -1.3 12.661999999999999 -1.7029999999999998Q12.506 -2.106 12.363 -2.4699999999999998Q12.219999999999999 -2.834 12.193999999999999 -2.964H6.032Q5.771999999999999 -2.262 5.616 -1.8199999999999998Q5.46 -1.378 5.369 -1.1179999999999999Q5.278 -0.858 5.239 -0.741Q5.2 -0.624 5.2 -0.572ZM11.517999999999999 -5.044 8.996 -11.232 6.6819999999999995 -5.044Z" fill="url(#tg)"/><path transform="translate(155.8,0)" d="M11.102 -7.904Q12.245999999999999 -7.904 12.674999999999999 -8.333Q13.104 -8.762 13.104 -9.334Q13.104 -9.905999999999999 12.674999999999999 -10.334999999999999Q12.245999999999999 -10.764 11.102 -10.764H6.734V-7.904ZM6.734 -0.7799999999999999Q6.734 -0.598 6.851 -0.481Q6.968 -0.364 7.462 -0.312V0.0H2.106V-0.312Q2.6 -0.364 2.717 -0.481Q2.834 -0.598 2.834 -0.7799999999999999V-12.895999999999999Q2.834 -13.078 2.717 -13.195Q2.6 -13.312 2.106 -13.363999999999999V-13.676H11.622Q14.508 -13.676 15.808 -12.623000000000001Q17.108 -11.57 17.108 -9.36Q17.108 -7.566 16.055 -6.552Q15.001999999999999 -5.537999999999999 13.389999999999999 -5.096L16.458 -0.7799999999999999Q16.77 -0.312 17.212 -0.312V0.0H11.804V-0.312Q12.376 -0.33799999999999997 12.376 -0.7799999999999999Q12.376 -0.832 12.168 -1.144Q11.959999999999999 -1.456 11.648 -1.898Q11.336 -2.34 10.959 -2.8469999999999995Q10.581999999999999 -3.3539999999999996 10.230999999999998 -3.822Q9.879999999999999 -4.29 9.62 -4.654Q9.36 -5.018 9.282 -5.148H6.734Z" fill="url(#tg)"/><path transform="translate(178.1,0)" d="M6.084 -0.312Q6.318 -0.364 6.395999999999999 -0.416Q6.473999999999999 -0.46799999999999997 6.473999999999999 -0.5459999999999999Q6.473999999999999 -0.598 6.266 -1.079Q6.058 -1.5599999999999998 5.733 -2.34Q5.4079999999999995 -3.1199999999999997 4.965999999999999 -4.108Q4.524 -5.096 4.069 -6.162Q3.614 -7.228 3.146 -8.268Q2.678 -9.308 2.288 -10.192Q1.898 -11.075999999999999 1.625 -11.725999999999999Q1.3519999999999999 -12.376 1.248 -12.636Q1.066 -13.078 0.962 -13.207999999999998Q0.858 -13.338 0.65 -13.363999999999999V-13.676H5.9799999999999995V-13.363999999999999Q5.668 -13.338 5.564 -13.259999999999998Q5.46 -13.181999999999999 5.46 -13.052Q5.46 -12.974 5.577 -12.727Q5.694 -12.479999999999999 6.071 -11.674Q6.4479999999999995 -10.868 7.162999999999999 -9.334Q7.877999999999999 -7.8 9.1 -5.148Q10.27 -7.7219999999999995 10.959 -9.242999999999999Q11.648 -10.764 12.024999999999999 -11.57Q12.402 -12.376 12.506 -12.675Q12.61 -12.974 12.61 -13.078Q12.61 -13.208 12.532 -13.273Q12.453999999999999 -13.338 12.219999999999999 -13.363999999999999V-13.676H16.692V-13.363999999999999Q16.535999999999998 -13.312 16.445 -13.26Q16.354 -13.208 16.302 -13.026Q16.25 -12.87 15.989999999999998 -12.271999999999998Q15.729999999999999 -11.674 15.352999999999998 -10.79Q14.975999999999999 -9.905999999999999 14.520999999999999 -8.826999999999998Q14.065999999999999 -7.747999999999999 13.584999999999999 -6.629999999999999Q13.104 -5.512 12.649 -4.446Q12.193999999999999 -3.38 11.843 -2.548Q11.491999999999999 -1.716 11.283999999999999 -1.17Q11.075999999999999 -0.624 11.075999999999999 -0.572Q11.075999999999999 -0.33799999999999997 11.44 -0.33799999999999997V0.0H6.084Z" fill="url(#tg)"/><path transform="translate(199.0,0)" d="M12.35 -4.992Q12.298 -5.252 12.129 -5.420999999999999Q11.959999999999999 -5.59 11.57 -5.59H6.734V-3.1719999999999997H15.08Q15.287999999999998 -3.1719999999999997 15.392 -3.3149999999999995Q15.495999999999999 -3.4579999999999997 15.548 -3.952H15.86V0.494H15.548Q15.495999999999999 0.156 15.392 0.078Q15.287999999999998 0.0 15.08 0.0H2.106V-0.312Q2.6 -0.364 2.717 -0.481Q2.834 -0.598 2.834 -0.7799999999999999V-12.895999999999999Q2.834 -13.078 2.717 -13.195Q2.6 -13.312 2.106 -13.363999999999999V-13.676H15.08Q15.287999999999998 -13.676 15.392 -13.818999999999999Q15.495999999999999 -13.962 15.548 -14.404H15.86V-9.879999999999999H15.548Q15.495999999999999 -10.322 15.392 -10.465Q15.287999999999998 -10.607999999999999 15.08 -10.607999999999999H6.734V-8.45H11.57Q11.959999999999999 -8.45 12.129 -8.619Q12.298 -8.788 12.35 -9.048H12.661999999999999V-4.992Z" fill="url(#tg)"/><path transform="translate(219.8,0)" d="M3.25 -5.278Q3.198 -5.122 3.198 -4.732Q3.198 -4.4719999999999995 3.6790000000000003 -4.146999999999999Q4.16 -3.8219999999999996 4.927 -3.5359999999999996Q5.694 -3.25 6.682 -3.0549999999999997Q7.67 -2.86 8.684 -2.86Q10.634 -2.86 11.544 -3.315Q12.453999999999999 -3.77 12.453999999999999 -4.628Q12.453999999999999 -5.096 11.661 -5.291Q10.868 -5.486 9.672 -5.603Q8.475999999999999 -5.72 7.097999999999999 -5.8629999999999995Q5.72 -6.005999999999999 4.524 -6.382999999999999Q3.328 -6.76 2.535 -7.475Q1.742 -8.19 1.742 -9.437999999999999Q1.742 -10.426 2.197 -11.232Q2.6519999999999997 -12.038 3.471 -12.61Q4.29 -13.181999999999999 5.46 -13.506999999999998Q6.63 -13.831999999999999 8.06 -13.831999999999999Q9.386 -13.831999999999999 10.53 -13.663Q11.674 -13.494 12.558 -13.286Q13.442 -13.078 14.04 -12.908999999999999Q14.638 -12.74 14.898 -12.74Q15.158 -12.74 15.314 -12.857Q15.469999999999999 -12.974 15.6 -13.129999999999999L15.886 -13.026L14.091999999999999 -9.411999999999999L13.78 -9.568V-9.854Q13.78 -10.088 13.273 -10.334999999999999Q12.766 -10.581999999999999 11.986 -10.777Q11.206 -10.972 10.244 -11.102Q9.282 -11.232 8.372 -11.232Q6.6819999999999995 -11.232 6.006 -10.841999999999999Q5.33 -10.452 5.33 -10.01Q5.33 -9.568 5.798 -9.347Q6.266 -9.126 7.02 -9.021999999999998Q7.774 -8.918 8.736 -8.853Q9.698 -8.788 10.712 -8.658000000000001Q11.725999999999999 -8.528 12.687999999999999 -8.294Q13.649999999999999 -8.06 14.404 -7.605Q15.158 -7.1499999999999995 15.625999999999998 -6.409Q16.093999999999998 -5.668 16.093999999999998 -4.55Q16.093999999999998 -3.6919999999999997 15.742999999999999 -2.86Q15.392 -2.028 14.547 -1.365Q13.702 -0.702 12.285 -0.312Q10.868 0.078 8.762 0.078Q7.124 0.078 5.941 -0.07799999999999999Q4.758 -0.23399999999999999 3.926 -0.45499999999999996Q3.094 -0.6759999999999999 2.613 -0.858Q2.132 -1.04 1.898 -1.04Q1.742 -1.04 1.625 -0.9359999999999999Q1.508 -0.832 1.378 -0.702L1.066 -0.7799999999999999L2.9899999999999998 -5.4079999999999995Z" fill="url(#tg)"/><path transform="translate(240.6,0)" d="M5.252 -0.312Q5.7459999999999996 -0.364 5.8629999999999995 -0.481Q5.9799999999999995 -0.598 5.9799999999999995 -0.7799999999999999V-10.504H1.508Q1.3 -10.504 1.196 -10.361Q1.0919999999999999 -10.218 1.04 -9.776H0.728V-14.404H1.04Q1.0919999999999999 -13.962 1.196 -13.818999999999999Q1.3 -13.676 1.508 -13.676H14.351999999999999Q14.559999999999999 -13.676 14.663999999999998 -13.818999999999999Q14.767999999999999 -13.962 14.819999999999999 -14.404H15.132V-9.776H14.819999999999999Q14.767999999999999 -10.218 14.663999999999998 -10.361Q14.559999999999999 -10.504 14.351999999999999 -10.504H9.879999999999999V-0.7799999999999999Q9.879999999999999 -0.598 9.997 -0.481Q10.113999999999999 -0.364 10.607999999999999 -0.312V0.0H5.252Z" fill="url(#tg)"/><path transform="translate(271.5,0)" d="M10.036 -3.068Q12.09 -3.068 13.0 -4.1209999999999996Q13.91 -5.1739999999999995 13.91 -6.838Q13.91 -8.501999999999999 13.0 -9.555Q12.09 -10.607999999999999 10.036 -10.607999999999999H6.734V-3.068ZM2.834 -12.895999999999999Q2.834 -13.078 2.717 -13.195Q2.6 -13.312 2.106 -13.363999999999999V-13.676H10.738Q12.532 -13.676 13.858 -13.155999999999999Q15.184 -12.636 16.041999999999998 -11.713Q16.9 -10.79 17.329 -9.542Q17.758 -8.294 17.758 -6.838Q17.758 -5.512 17.302999999999997 -4.276999999999999Q16.848 -3.042 15.924999999999999 -2.093Q15.001999999999999 -1.144 13.637 -0.572Q12.272 0.0 10.452 0.0H2.106V-0.312Q2.6 -0.364 2.717 -0.481Q2.834 -0.598 2.834 -0.7799999999999999Z" fill="url(#tg)"/><path transform="translate(293.7,0)" d="M5.2 -0.572Q5.2 -0.442 5.291 -0.377Q5.382 -0.312 5.668 -0.312V0.0H1.066V-0.312Q1.3519999999999999 -0.364 1.4819999999999998 -0.481Q1.6119999999999999 -0.598 1.742 -0.9099999999999999Q1.7939999999999998 -1.04 2.002 -1.6119999999999999Q2.21 -2.1839999999999997 2.548 -3.0549999999999997Q2.8859999999999997 -3.9259999999999997 3.3019999999999996 -4.992Q3.718 -6.058 4.134 -7.162999999999999Q4.55 -8.267999999999999 4.952999999999999 -9.320999999999998Q5.356 -10.373999999999999 5.667999999999999 -11.206Q5.9799999999999995 -12.038 6.175 -12.558Q6.37 -13.078 6.37 -13.104Q6.37 -13.234 6.2010000000000005 -13.286Q6.032 -13.338 5.85 -13.363999999999999V-13.676H12.636V-13.363999999999999Q12.427999999999999 -13.338 12.297999999999998 -13.286Q12.168 -13.234 12.168 -13.026Q12.168 -12.974 12.415 -12.35Q12.661999999999999 -11.725999999999999 13.052 -10.725Q13.442 -9.724 13.949 -8.463000000000001Q14.456 -7.202 15.001999999999999 -5.888999999999999Q15.548 -4.576 16.055 -3.328Q16.561999999999998 -2.08 16.977999999999998 -1.0919999999999999Q17.186 -0.624 17.329 -0.46799999999999997Q17.471999999999998 -0.312 17.706 -0.312V0.0H12.584V-0.312Q13.078 -0.33799999999999997 13.078 -0.624Q13.078 -0.65 12.948 -0.9750000000000001Q12.818 -1.3 12.661999999999999 -1.7029999999999998Q12.506 -2.106 12.363 -2.4699999999999998Q12.219999999999999 -2.834 12.193999999999999 -2.964H6.032Q5.771999999999999 -2.262 5.616 -1.8199999999999998Q5.46 -1.378 5.369 -1.1179999999999999Q5.278 -0.858 5.239 -0.741Q5.2 -0.624 5.2 -0.572ZM11.517999999999999 -5.044 8.996 -11.232 6.6819999999999995 -5.044Z" fill="url(#tg)"/><path transform="translate(316.0,0)" d="M5.252 -0.312Q5.7459999999999996 -0.364 5.8629999999999995 -0.481Q5.9799999999999995 -0.598 5.9799999999999995 -0.7799999999999999V-10.504H1.508Q1.3 -10.504 1.196 -10.361Q1.0919999999999999 -10.218 1.04 -9.776H0.728V-14.404H1.04Q1.0919999999999999 -13.962 1.196 -13.818999999999999Q1.3 -13.676 1.508 -13.676H14.351999999999999Q14.559999999999999 -13.676 14.663999999999998 -13.818999999999999Q14.767999999999999 -13.962 14.819999999999999 -14.404H15.132V-9.776H14.819999999999999Q14.767999999999999 -10.218 14.663999999999998 -10.361Q14.559999999999999 -10.504 14.351999999999999 -10.504H9.879999999999999V-0.7799999999999999Q9.879999999999999 -0.598 9.997 -0.481Q10.113999999999999 -0.364 10.607999999999999 -0.312V0.0H5.252Z" fill="url(#tg)"/><path transform="translate(335.4,0)" d="M5.2 -0.572Q5.2 -0.442 5.291 -0.377Q5.382 -0.312 5.668 -0.312V0.0H1.066V-0.312Q1.3519999999999999 -0.364 1.4819999999999998 -0.481Q1.6119999999999999 -0.598 1.742 -0.9099999999999999Q1.7939999999999998 -1.04 2.002 -1.6119999999999999Q2.21 -2.1839999999999997 2.548 -3.0549999999999997Q2.8859999999999997 -3.9259999999999997 3.3019999999999996 -4.992Q3.718 -6.058 4.134 -7.162999999999999Q4.55 -8.267999999999999 4.952999999999999 -9.320999999999998Q5.356 -10.373999999999999 5.667999999999999 -11.206Q5.9799999999999995 -12.038 6.175 -12.558Q6.37 -13.078 6.37 -13.104Q6.37 -13.234 6.2010000000000005 -13.286Q6.032 -13.338 5.85 -13.363999999999999V-13.676H12.636V-13.363999999999999Q12.427999999999999 -13.338 12.297999999999998 -13.286Q12.168 -13.234 12.168 -13.026Q12.168 -12.974 12.415 -12.35Q12.661999999999999 -11.725999999999999 13.052 -10.725Q13.442 -9.724 13.949 -8.463000000000001Q14.456 -7.202 15.001999999999999 -5.888999999999999Q15.548 -4.576 16.055 -3.328Q16.561999999999998 -2.08 16.977999999999998 -1.0919999999999999Q17.186 -0.624 17.329 -0.46799999999999997Q17.471999999999998 -0.312 17.706 -0.312V0.0H12.584V-0.312Q13.078 -0.33799999999999997 13.078 -0.624Q13.078 -0.65 12.948 -0.9750000000000001Q12.818 -1.3 12.661999999999999 -1.7029999999999998Q12.506 -2.106 12.363 -2.4699999999999998Q12.219999999999999 -2.834 12.193999999999999 -2.964H6.032Q5.771999999999999 -2.262 5.616 -1.8199999999999998Q5.46 -1.378 5.369 -1.1179999999999999Q5.278 -0.858 5.239 -0.741Q5.2 -0.624 5.2 -0.572ZM11.517999999999999 -5.044 8.996 -11.232 6.6819999999999995 -5.044Z" fill="url(#tg)"/></g></g></svg>